# xmcd
#
# Track frame offsets: 
#        150
#        14872
#        33159
#        48173
#        59032
#        67676
#        81109
#        88968
#        107551
#        121989
#        135118
#        144729
#
# Disc length: 2116 seconds
#
# Revision: 0
# Processed by: cddbd v1.5.1PL0 Copyright (c) Steve Scherf et al.
# Submitted via: ExactAudioCopy v0.95a5
#
DISCID=9f08420c
DTITLE=String Builder - Mortar
DYEAR=2000
DGENRE=Indie
TTITLE0=Shift That Weight
TTITLE1=Gusty
TTITLE2=A Difficult Walk
TTITLE3=Living Mercy
TTITLE4=Rur
TTITLE5=Lonesome Pine
TTITLE6=Is This the Best You Can Do
TTITLE7=Squa Pan
TTITLE8=Lake View
TTITLE9=It's Not the Worst Time I Had
TTITLE10=Lashes Under Lid
TTITLE11=No Sense
EXTD=
EXTT0=
EXTT1=
EXTT2=
EXTT3=
EXTT4=
EXTT5=
EXTT6=
EXTT7=
EXTT8=
EXTT9=
EXTT10=
EXTT11=
PLAYORDER=
